{"title":"Glory 28 Paris 720p WEB-DL x264 [TJET]","uid":13846399,"size":2497281321,"categoryP":"video","categoryS":"hd___tv_shows","magnet":"?xt=urn:btih:f9df23d698def31a009749d8ca079b58304c5836&amp;dn=Glory+28+Paris+720p+WEB-DL+x264+%5BTJET%5D&amp;tr=udp%3A%2F%2Ftracker.leechers-paradise.org%3A6969&amp;tr=udp%3A%2F%2Fzer0day.ch%3A1337&amp;tr=udp%3A%2F%2Fopen.demonii.com%3A1337&amp;tr=udp%3A%2F%2Ftracker.coppersurfer.tk%3A6969&amp;tr=udp%3A%2F%2Fexodus.desync.com%3A6969","seeders":0,"leechers":1,"uploader":"CenaCme","files":2,"time":1457873641,"description":"Sitthichai Sitsongpeenong vs Davit Kiria (Semifinal #1)\r\nMarat Grigorian vs Anatoly Moiseev (Semifinal #2)\r\nMurthel Groenhart vs Cedric Doumbe\r\nSemifinal #1 Winner vs Semifinal #2 Winner\r\nRico Verhoeven vs Mladen Brestovac\r\n\r\nGeneral\r\nComplete name                            : Glory.28.Paris.720p.WEB-DL.x264.mp4\r\nFormat                                   : MPEG-4\r\nFormat profile                           : Base Media\r\nCodec ID                                 : isom\r\nFile size                                : 2.33 GiB\r\nDuration                                 : 2h 28mn\r\nOverall bit rate                         : 2 240 Kbps\r\nWriting application                      : Lavf57.25.100\r\n\r\nVideo\r\nID                                       : 1\r\nFormat                                   : AVC\r\nFormat/Info                              : Advanced Video Codec\r\nFormat profile                           :   \r\nFormat settings, CABAC                   : Yes\r\nFormat settings, ReFrames                : 4 frames\r\nCodec ID                                 : avc1\r\nCodec ID/Info                            : Advanced Video Coding\r\nDuration                                 : 2h 28mn\r\nBit rate                                 : 2 200 Kbps\r\nWidth                                    : 1 280 pixels\r\nHeight                                   : 720 pixels\r\nDisplay aspect ratio                     : 16:9\r\nFrame rate mode                          : Variable\r\nFrame rate                               : 29.970 fps\r\nMinimum frame rate                       : 29.412 fps\r\nMaximum frame rate                       : 30.303 fps\r\nColor space                              : YUV\r\nChroma subsampling                       : 4:2:0\r\nBit depth                                : 8 bits\r\nScan type                                : Progressive\r\nBits/(Pixel*Frame)                       : 0.080\r\nStream size                              : 2.18 GiB (94%)\r\nWriting library                          : x264 core 136 r63M 8fcf9de\r\nEncoding settings                        : cabac=1 / ref=3 / deblock=1:0:0 / analyse=0x3:0x113 / me=hex / subme=7 / psy=1 / psy_rd=1.00:0.00 / mixed_ref=1 / me_range=16 / chroma_me=1 / trellis=1 / 8x8dct=1 / cqm=0 / deadzone=21,11 / fast_pskip=1 / chroma_qp_offset=-2 / threads=24 / lookahead_threads=4 / sliced_threads=0 / nr=0 / decimate=1 / interlaced=0 / bluray_compat=0 / constrained_intra=0 / bframes=3 / b_pyramid=2 / b_adapt=1 / b_bias=0 / direct=1 / weightb=1 / open_gop=0 / weightp=2 / keyint=149 / keyint_min=14 / scenecut=0 / intra_refresh=0 / rc_lookahead=40 / rc=cbr / mbtree=1 / bitrate=2200 / ratetol=1.0 / qcomp=0.60 / qpmin=0 / qpmax=69 / qpstep=4 / vbv_maxrate=2200 / vbv_bufsize=4400 / nal_hrd=none / ip_ratio=1.40 / aq=1:1.00\r\n\r\nAudio\r\nID                                       : 2\r\nFormat                                   : AAC\r\nFormat/Info                              : Advanced Audio Codec\r\nFormat profile                           : LC\r\nCodec ID                                 : 40\r\nDuration                                 : 2h 28mn\r\nBit rate mode                            : Constant\r\nBit rate                                 : 127 Kbps\r\nChannel(s)                               : 2 channels\r\nChannel positions                        : Front: L R\r\nSampling rate                            : 44.1 KHz\r\nCompression mode                         : Lossy\r\nStream size                              : 135 MiB (6%)\r\n\r\n\r\nThumb sheet:\r\n \nhttp://extraimago.com/image/anCg","torrent":{"xt":"urn:btih:f9df23d698def31a009749d8ca079b58304c5836","amp;dn":"Glory+28+Paris+720p+WEB-DL+x264+%5BTJET%5D","amp;tr":["udp%3A%2F%2Ftracker.leechers-paradise.org%3A6969","udp%3A%2F%2Fzer0day.ch%3A1337","udp%3A%2F%2Fopen.demonii.com%3A1337","udp%3A%2F%2Ftracker.coppersurfer.tk%3A6969","udp%3A%2F%2Fexodus.desync.com%3A6969"],"infoHash":"f9df23d698def31a009749d8ca079b58304c5836","infoHashBuffer":{"type":"Buffer","data":[249,223,35,214,152,222,243,26,0,151,73,216,202,7,155,88,48,76,88,54]},"announce":[],"urlList":[]}}